Coordinates
version=1
nRows=5
nColumns=40
inDegrees=yes

Units are S.I. units (second, meters, Newtons, ...)
Angles are in degrees.

endheader
time	pelvis_tilt	pelvis_list	pelvis_rotation	pelvis_tx	pelvis_ty	pelvis_tz	hip_flexion_r	hip_adduction_r	hip_rotation_r	knee_angle_r	knee_angle_r_beta	ankle_angle_r	subtalar_angle_r	mtp_angle_r	hip_flexion_l	hip_adduction_l	hip_rotation_l	knee_angle_l	knee_angle_l_beta	ankle_angle_l	subtalar_angle_l	mtp_angle_l	lumbar_extension	lumbar_bending	lumbar_rotation	arm_flex_r	arm_add_r	arm_rot_r	elbow_flex_r	pro_sup_r	wrist_flex_r	wrist_dev_r	arm_flex_l	arm_add_l	arm_rot_l	elbow_flex_l	pro_sup_l	wrist_flex_l	wrist_dev_l
     53.92250000	     -4.21275036	     -4.05181556	      4.66559107	      0.99020566	      0.92079985	      0.43227959	     -0.16215791	     -0.52525075	    -15.39272723	     24.41468142	     24.41468142	     18.57200889	      2.93496177	     -5.30307091	     26.45626891	     -3.75295979	      2.80838909	     28.74924248	     28.74924248	     10.12029034	    -14.06901462	      7.05221418	     -6.55994811	      4.88974826	      4.59636257	     44.48492703	    -14.75659969	     -2.00211409	    107.47479437	     42.71464205	      0.00000000	      0.00000000	     -0.82471482	     -6.25945733	      2.19391277	     30.60467081	     42.86247922	      0.00000000	      0.00000000
     53.93457143	     -4.31260101	     -3.95720949	      4.49492991	      0.98969314	      0.92181993	      0.42936106	      1.05065344	     -1.31578630	    -15.10512409	     27.26168777	     27.26168777	     17.47203895	      2.07540048	     -6.84570726	     25.83036893	     -3.61038457	      2.36672925	     28.40257251	     28.40257251	     10.50859410	    -13.72675120	      6.91674599	     -6.52816240	      4.93374401	      4.49547074	     44.36628368	    -14.79920694	     -1.91840896	    107.03867329	     42.75597575	      0.00000000	      0.00000000	     -0.98333792	     -6.20416115	      2.64252974	     30.34197790	     42.83300298	      0.00000000	      0.00000000
     53.94664286	     -4.48621959	     -3.88455932	      4.27522578	      0.98906551	      0.92268756	      0.42663853	      2.52223671	     -2.05953411	    -14.59382809	     30.30064760	     30.30064760	     15.88904166	      0.81775646	     -8.88906461	     25.27485613	     -3.51171145	      1.90864939	     28.04385990	     28.04385990	     10.92977228	    -13.27630383	      6.66927763	     -6.42799761	      4.96972593	      4.34036098	     44.14622898	    -14.80538578	     -1.83161770	    106.34843377	     42.81192145	      0.00000000	      0.00000000	     -1.11545132	     -6.22241797	      3.20567296	     30.10098243	     42.79600486	      0.00000000	      0.00000000
     53.95871429	     -4.40195036	     -3.77360889	      4.05715101	      0.98842652	      0.92380180	      0.42397448	      3.95762274	     -2.87449958	    -14.11569708	     33.76712784	     33.76712784	     14.37674247	     -0.46156763	    -10.19865408	     24.41492795	     -3.42533707	      1.31162788	     27.64254550	     27.64254550	     11.24029235	    -12.79193446	      6.48555443	     -6.66738387	      5.01997707	      4.26773784	     43.87519280	    -14.76689692	     -1.78973780	    105.81117085	     42.84673114	      0.00000000	      0.00000000	     -1.12852953	     -6.21628396	      3.51465311	     30.01719827	     42.77604604	      0.00000000	      0.00000000
     53.97078571	     -4.54384015	     -3.72801927	      3.78643388	      0.98762895	      0.92447122	      0.42159653	      5.83223733	     -3.55191049	    -13.39663643	     37.38928237	     37.38928237	     12.48176634	     -2.17042280	    -11.52504187	     23.82202734	     -3.41658145	      0.71167531	     27.26202949	     27.26202949	     11.64371109	    -12.21840718	      6.16786742	     -6.62417353	      5.05892632	      4.13003429	     43.35653679	    -14.73591806	     -1.78749232	    104.99916387	     42.89294811	      0.00000000	      0.00000000	     -1.16814443	     -6.31217528	      3.85508174	     29.92971201	     42.75436832	      0.00000000	      0.00000000
